<?xml version="1.0" encoding="UTF-8" standalone="no"?>
<svg
   version="1.1"
   width="219.27"
   height="211.99001"
   viewBox="0 0 219.27 211.99001"
   xml:space="preserve"
   id="svg78"
   sodipodi:docname="12511345_1.svg"
   inkscape:version="1.2.1 (9c6d41e410, 2022-07-14)"
   inkscape:export-filename="12511345_1.png"
   inkscape:export-xdpi="96"
   inkscape:export-ydpi="96"
   xmlns:inkscape="http://www.inkscape.org/namespaces/inkscape"
   xmlns:sodipodi="http://sodipodi.sourceforge.net/DTD/sodipodi-0.dtd"
   xmlns="http://www.w3.org/2000/svg"
   xmlns:svg="http://www.w3.org/2000/svg"><sodipodi:namedview
   id="namedview80"
   pagecolor="#ffffff"
   bordercolor="#000000"
   borderopacity="0.25"
   inkscape:showpageshadow="2"
   inkscape:pageopacity="0.0"
   inkscape:pagecheckerboard="0"
   inkscape:deskcolor="#d1d1d1"
   showgrid="false"
   inkscape:zoom="2"
   inkscape:cx="158.5"
   inkscape:cy="144.5"
   inkscape:window-width="1920"
   inkscape:window-height="1017"
   inkscape:window-x="-8"
   inkscape:window-y="-8"
   inkscape:window-maximized="1"
   inkscape:current-layer="layer5"><inkscape:grid
     type="xygrid"
     id="grid3200" /></sodipodi:namedview>
<desc
   id="desc42">Created with Fabric.js 3.6.3</desc>
<defs
   id="defs44"><inkscape:path-effect
   effect="powerclip"
   id="path-effect6033"
   is_visible="true"
   lpeversion="1"
   inverse="true"
   flatten="false"
   hide_clip="false"
   message="Используйте чётно-нечётное правило заливки в диалоговом окне &lt;b&gt;заливки и обводки&lt;/b&gt;, если результат выравнивания после преобразования вырезки в контуры отсутствует." /><inkscape:path-effect
   effect="powerclip"
   id="path-effect6029"
   is_visible="true"
   lpeversion="1"
   inverse="true"
   flatten="false"
   hide_clip="false"
   message="Используйте чётно-нечётное правило заливки в диалоговом окне &lt;b&gt;заливки и обводки&lt;/b&gt;, если результат выравнивания после преобразования вырезки в контуры отсутствует." />
<clipPath
   clipPathUnits="userSpaceOnUse"
   id="clipPath6021"><rect
     style="display:none;fill:#ffffff;fill-opacity:1;fill-rule:evenodd;stroke-width:1.26032"
     id="rect6023"
     width="199.27"
     height="46.592999"
     x="-104.49"
     y="-27.969999"
     inkscape:label="rect234"
     d="M -104.49,-27.969999 H 94.780006 V 18.622999 H -104.49 Z" /><path
     id="lpe_path-effect6029"
     style="display:inline;fill:#ffffff;fill-opacity:1;fill-rule:evenodd;stroke-width:1.26032"
     class="powerclip"
     d="M -4.54,-98.19 H 109.78 V 123.8 H -4.54 Z m -99.95,70.220001 V 18.622999 H 94.780006 v -46.592998 z" /></clipPath><clipPath
   clipPathUnits="userSpaceOnUse"
   id="clipPath6025"><rect
     style="display:none;fill:#ffffff;fill-opacity:1;fill-rule:evenodd;stroke-width:1.26032"
     id="rect6027"
     width="199.27"
     height="46.592999"
     x="-104.49"
     y="-27.969999"
     inkscape:label="rect234"
     d="M -104.49,-27.969999 H 94.780006 V 18.622999 H -104.49 Z" /><path
     id="lpe_path-effect6033"
     style="display:inline;fill:#ffffff;fill-opacity:1;fill-rule:evenodd;stroke-width:1.26032"
     class="powerclip"
     d="M -119.49,-98.19 H 42.66 V 80.48 h -162.15 z m 15,70.220001 V 18.622999 H 94.780006 v -46.592998 z" /></clipPath></defs>


<g
   inkscape:groupmode="layer"
   id="layer5"
   inkscape:label="Layer 3"
   style="display:inline"><g
     transform="translate(117.99,88.51612)"
     id="g76"
     style="display:inline;fill:#ffffff"><path
       fill="#046380"
       opacity="1"
       d="m -74.2,6.38 c 0.52,1.27 0.97,1.54 1.52,1.54 0.54,0 1.04,-0.05 1.49,-0.3 0,-0.3 0.2,-1.02 0.55,-1.94 l 4.88,-12.57 c 0.37,-0.95 0.67,-1.87 0.85,-2.79 -0.83,0 -1.42,0.02 -1.97,0.1 -0.35,1.42 -0.67,2.39 -1.15,3.68 l -4.23,11.26 -4.63,-12.2 c -0.35,-0.93 -0.85,-1.92 -1.42,-2.84 -1.07,0 -1.99,0.12 -2.44,0.25 0.72,1.39 1.19,2.31 1.69,3.56 z"
       id="path58"
       style="fill:#ffffff" /><path
       fill="#046380"
       opacity="1"
       d="m -47.01,-0.44 c 1.32,0 1.54,-0.25 1.54,-0.58 0,-0.27 -0.07,-0.69 -0.35,-0.99 -0.29,0.15 -0.89,0.17 -1.89,0.17 h -5.28 c -0.37,0 -0.74,0 -1.09,0.03 v -4.36 c 0,-0.7 -0.03,-1.37 -0.08,-2.02 0.43,-0.02 0.85,-0.02 1.32,-0.02 h 6.48 c 1.29,0 1.52,-0.25 1.52,-0.6 0,-0.28 -0.08,-0.7 -0.33,-1.02 -0.3,0.2 -0.92,0.22 -1.92,0.22 h -6.12 c -1.17,0 -2.42,0.05 -3.46,0.18 0.2,1.39 0.25,2.36 0.25,3.61 V 6.6 c 0,0.52 0.1,1.07 0.22,1.4 1.42,-0.15 2.34,-0.18 3.59,-0.18 h 6.47 c 1.32,0 1.54,-0.27 1.54,-0.6 0,-0.29 -0.07,-0.74 -0.34,-1.07 -0.3,0.25 -0.9,0.28 -1.9,0.28 h -6.15 c -0.37,0 -0.72,0 -1.09,0.02 v -6.87 c 0.47,-0.02 0.94,-0.02 1.47,-0.02 z"
       id="path60"
       style="fill:#ffffff" /><path
       fill="#046380"
       opacity="1"
       d="m -33.86,-0.99 c 0,-4.36 2.39,-7.32 5.82,-7.32 2.04,0 3.56,1.07 4.16,2.59 1.17,0 1.89,-0.25 1.89,-0.95 0,-1.15 -2.14,-3.06 -5.95,-3.06 -5.18,0 -8.44,3.71 -8.44,9.11 0,5.08 3.11,8.57 8.24,8.57 2.79,0 5.21,-1.17 6.35,-2.79 V 2.19 c 0,-1.17 -0.05,-2.46 -0.17,-3.51 h -2.52 c -1.17,0 -2.41,0.05 -3.46,0.18 0,0.52 0.13,1.07 0.25,1.39 1.35,-0.15 2.27,-0.17 3.46,-0.17 0.08,0.87 0.1,1.62 0.1,2.49 v 3.01 c -0.75,0.47 -1.89,0.95 -3.86,0.95 -3.53,0 -5.87,-3.07 -5.87,-7.52 z"
       id="path62"
       style="fill:#ffffff" /><path
       fill="#046380"
       opacity="1"
       d="M -0.62,6.38 C -0.1,7.7 0.47,7.92 1.02,7.92 1.52,7.92 2.29,7.82 2.74,7.57 2.29,7.27 1.99,6.7 1.59,5.68 l -4.7,-11.93 c -0.48,-1.17 -0.97,-2.39 -1.5,-3.43 -1.02,0 -1.99,0.12 -2.39,0.22 -0.35,1.37 -0.77,2.62 -1.17,3.59 L -13,6.38 c -0.2,0.55 -0.27,0.89 -0.27,1.12 0,0.32 0.22,0.42 0.5,0.42 0.39,0 1.04,-0.1 1.59,-0.35 0,-0.4 0.15,-0.99 0.5,-1.89 l 1.12,-2.96 h 7.49 z m -4.81,-12.25 2.82,7.19 h -6.4 l 3.16,-8.24 c 0.15,0.32 0.27,0.67 0.42,1.05 z"
       id="path64"
       style="fill:#ffffff" /><path
       fill="#046380"
       opacity="1"
       d=""
       id="path66"
       style="fill:#ffffff" /><path
       fill="#046380"
       opacity="1"
       d=""
       id="path68"
       style="fill:#ffffff" /><path
       fill="#046380"
       opacity="1"
       d="m 34.76,9.29 c 0,1.72 -1,3.06 -2.59,3.06 0,0.75 0.47,1.2 1.22,1.2 2.04,0 3.71,-1.82 3.71,-4.56 V -6.25 c 0,-1.17 -0.02,-2.41 -0.15,-3.46 -0.99,0 -1.99,0.13 -2.41,0.25 0.2,1.4 0.22,2.34 0.22,3.59 z"
       id="path70"
       style="fill:#ffffff" /><path
       fill="#046380"
       opacity="1"
       d="m 56.25,-0.44 c 1.32,0 1.54,-0.25 1.54,-0.58 0,-0.27 -0.07,-0.69 -0.35,-0.99 -0.29,0.15 -0.89,0.17 -1.89,0.17 h -5.28 c -0.37,0 -0.74,0 -1.09,0.03 v -4.36 c 0,-0.7 -0.03,-1.37 -0.08,-2.02 0.43,-0.02 0.85,-0.02 1.32,-0.02 h 6.48 c 1.29,0 1.52,-0.25 1.52,-0.6 0,-0.28 -0.08,-0.7 -0.33,-1.02 -0.3,0.2 -0.92,0.22 -1.92,0.22 h -6.12 c -1.17,0 -2.42,0.05 -3.46,0.18 0.2,1.39 0.25,2.36 0.25,3.61 V 6.6 c 0,0.52 0.1,1.07 0.22,1.4 1.42,-0.15 2.34,-0.18 3.59,-0.18 h 6.47 c 1.32,0 1.54,-0.27 1.54,-0.6 0,-0.29 -0.07,-0.74 -0.34,-1.07 -0.3,0.25 -0.9,0.28 -1.9,0.28 h -6.15 c -0.37,0 -0.72,0 -1.09,0.02 v -6.87 c 0.47,-0.02 0.94,-0.02 1.47,-0.02 z"
       id="path72"
       style="fill:#ffffff" /><path
       fill="#046380"
       opacity="1"
       d="m 79.31,-8.21 c 1.29,0 1.52,-0.28 1.52,-0.63 0,-0.27 -0.08,-0.72 -0.33,-1.07 -0.3,0.25 -0.92,0.3 -1.92,0.3 h -8.81 c -1.17,0 -2.42,0.05 -3.46,0.18 0,0.52 0.12,1.07 0.25,1.39 1.39,-0.15 2.34,-0.17 3.58,-0.17 h 2.19 c 0.08,0.82 0.08,1.49 0.08,2.34 V 6.38 c 0,1.32 0.47,1.54 1,1.54 0.47,0 1.22,-0.1 1.76,-0.35 C 74.82,7.27 74.75,6.68 74.75,5.68 V -6.25 c 0,-0.67 -0.03,-1.32 -0.05,-1.96 z"
       id="path74"
       style="fill:#ffffff" /></g></g><g
   inkscape:groupmode="layer"
   id="layer3"
   inkscape:label="Layer 1"
   style="display:inline"><g
     transform="translate(114.49,93.19)"
     id="g52"
     style="fill:#ffffff"><path
       fill="#046380"
       opacity="1"
       d="m -7.39,-93.19 c 9.0066667,0.46 18.093333,0.69 27.26,0.69 v 0 c 7.086667,0 13.016667,-0.23 17.79,-0.69 v 0 4.74 c -7.933333,1.766667 -14.17,8.62 -18.71,20.56 v 0 L -36.62,75.48 h -1.97 -1.84 L -98.2,-73.32 c -3.84667,-9.78 -9.27667,-14.823333 -16.29,-15.13 v 0 -4.74 c 6.39333,0.46 14.826667,0.69 25.3,0.69 v 0 c 13.56,0 23.65,-0.23 30.27,-0.69 v 0 4.74 c -6.006667,0.226667 -10.3,0.956667 -12.88,2.19 -2.58,1.233333 -3.87,3.43 -3.87,6.59 v 0 c 0,2.62 0.923333,6.316667 2.77,11.09 v 0 L -30.04,45.1 8.55,-54.83 c 3.16,-8.166667 4.74,-14.6 4.74,-19.3 v 0 c 0,-5.006667 -1.696667,-8.606667 -5.09,-10.8 -3.3866667,-2.193333 -8.58333333,-3.366667 -15.59,-3.52 v 0 z"
       id="path4513"
       style="stroke:none;fill:#ffffff"
       sodipodi:nodetypes="csssccscccccsccsssccsssscccsscscc"
       clip-path="url(#clipPath6025)"
       inkscape:path-effect="#path-effect6033"
       inkscape:original-d="m -7.39,-93.19 c 9.0066667,0.46 18.093333,0.69 27.26,0.69 v 0 c 7.086667,0 13.016667,-0.23 17.79,-0.69 v 0 4.74 c -7.933333,1.766667 -14.17,8.62 -18.71,20.56 v 0 L -36.62,75.48 h -1.97 -1.84 L -98.2,-73.32 c -3.84667,-9.78 -9.27667,-14.823333 -16.29,-15.13 v 0 -4.74 c 6.39333,0.46 14.826667,0.69 25.3,0.69 v 0 c 13.56,0 23.65,-0.23 30.27,-0.69 v 0 4.74 c -6.006667,0.226667 -10.3,0.956667 -12.88,2.19 -2.58,1.233333 -3.87,3.43 -3.87,6.59 v 0 c 0,2.62 0.923333,6.316667 2.77,11.09 v 0 L -30.04,45.1 8.55,-54.83 c 3.16,-8.166667 4.74,-14.6 4.74,-19.3 v 0 c 0,-5.006667 -1.696667,-8.606667 -5.09,-10.8 -3.3866667,-2.193333 -8.58333333,-3.366667 -15.59,-3.52 v 0 z" /><path
       fill="#046380"
       opacity="1"
       d="m 104.78,-88.45 q -8.55,0.34 -12.42,1.85 -3.87,1.5 -5.31,5.54 -1.44,4.04 -1.44,12.94 v 0 86.65 q 0,20.1 -0.76,35.64 -0.75,15.53 -3.29,26.05 v 0 q -2.65,11.09 -9.36,19.81 -6.7,8.72 -17.04,13.75 -10.34,5.02 -23.51,5.02 v 0 q -11.55,0 -19.87,-4.27 v 0 Q 0.46,108.64 0.46,98.24 v 0 q 0,-5.55 3.53,-9.07 3.52,-3.52 8.95,-3.52 v 0 q 5.66,0 9.36,3.46 3.69,3.47 3.69,9.36 v 0 q 0,4.97 -2.65,8.03 -2.66,3.06 -7.28,3.99 v 0 q 2.08,2.08 6.53,2.94 4.44,0.87 8.6,0.87 v 0 q 10.28,0 17.74,-5.32 7.45,-5.31 10.68,-14.78 v 0 q 2.43,-7.4 3.24,-18.43 0.81,-11.03 0.81,-35.76 v 0 -108.13 q 0,-8.9 -1.45,-12.94 -1.44,-4.04 -5.31,-5.54 -3.87,-1.51 -12.42,-1.85 v 0 -4.74 q 9.82,0.69 30.27,0.69 v 0 q 18.94,0 30.03,-0.69 v 0 z"
       id="path50"
       inkscape:label="path50"
       style="stroke:none;fill:#ffffff"
       clip-path="url(#clipPath6021)"
       inkscape:path-effect="#path-effect6029"
       inkscape:original-d="m 104.78,-88.45 q -8.55,0.34 -12.42,1.85 -3.87,1.5 -5.31,5.54 -1.44,4.04 -1.44,12.94 v 0 86.65 q 0,20.1 -0.76,35.64 -0.75,15.53 -3.29,26.05 v 0 q -2.65,11.09 -9.36,19.81 -6.7,8.72 -17.04,13.75 -10.34,5.02 -23.51,5.02 v 0 q -11.55,0 -19.87,-4.27 v 0 Q 0.46,108.64 0.46,98.24 v 0 q 0,-5.55 3.53,-9.07 3.52,-3.52 8.95,-3.52 v 0 q 5.66,0 9.36,3.46 3.69,3.47 3.69,9.36 v 0 q 0,4.97 -2.65,8.03 -2.66,3.06 -7.28,3.99 v 0 q 2.08,2.08 6.53,2.94 4.44,0.87 8.6,0.87 v 0 q 10.28,0 17.74,-5.32 7.45,-5.31 10.68,-14.78 v 0 q 2.43,-7.4 3.24,-18.43 0.81,-11.03 0.81,-35.76 v 0 -108.13 q 0,-8.9 -1.45,-12.94 -1.44,-4.04 -5.31,-5.54 -3.87,-1.51 -12.42,-1.85 v 0 -4.74 q 9.82,0.69 30.27,0.69 v 0 q 18.94,0 30.03,-0.69 v 0 z" /></g></g></svg>
